# This file uses centimeters as units for non-parametric coordinates.

mtllib Ramp.mtl
g default
v -5.004123 0.000181 1.500000
v 5.000000 0.001090 1.500000
v 5.000000 3.064708 1.500000
v -5.004123 0.000181 -1.500000
v 5.000000 3.064708 -1.500000
v 5.000000 0.001090 -1.500000
vt 0.218588 0.999194
vt 0.877568 0.013381
vt 0.220708 0.240177
vt 0.645588 0.734656
vt 0.438338 0.240785
vt 0.438958 0.018540
vt 0.659980 0.009065
vt 0.008028 0.304677
vt 0.436218 0.999802
vt 0.863176 0.738972
vt 0.650654 0.306472
vt 0.221329 0.017933
vn 0.000000 0.000000 1.000000
vn 0.000000 0.000000 1.000000
vn 0.000000 0.000000 1.000000
vn -0.292893 0.956145 0.000000
vn -0.292893 0.956145 0.000000
vn -0.292893 0.956145 0.000000
vn -0.292893 0.956145 0.000000
vn 0.000000 0.000000 -1.000000
vn 0.000000 0.000000 -1.000000
vn 0.000000 0.000000 -1.000000
vn 0.000091 -1.000000 0.000000
vn 0.000091 -1.000000 0.000000
vn 0.000091 -1.000000 0.000000
vn 0.000091 -1.000000 0.000000
vn 1.000000 0.000000 0.000000
vn 1.000000 0.000000 0.000000
vn 1.000000 0.000000 0.000000
vn 1.000000 0.000000 0.000000
s off
g pCube1
usemtl initialShadingGroup
f 1/1/1 2/8/2 3/3/3
f 1/1/4 3/3/5 5/5/6 4/9/7
f 4/9/8 5/5/9 6/11/10
f 4/4/11 6/7/12 2/2/13 1/10/14
f 2/12/15 6/6/16 5/5/17 3/3/18
