# This file uses centimeters as units for non-parametric coordinates.

mtllib TopMesh.mtl
v 0.987689 2.000000 0.156434
v 0.951057 2.000000 0.309017
v 0.891007 2.000000 0.453991
v 0.809018 2.000000 0.587785
v 0.707107 2.000000 0.707107
v 0.587786 2.000000 0.809017
v 0.453991 2.000000 0.891007
v 0.309017 2.000000 0.951057
v 0.156435 2.000000 0.987689
v 0.000000 2.000000 1.000001
v -0.156434 2.000000 0.987689
v -0.309017 2.000000 0.951057
v -0.453991 2.000000 0.891007
v -0.587785 2.000000 0.809018
v -0.707107 2.000000 0.707107
v -0.809017 2.000000 0.587786
v -0.891007 2.000000 0.453991
v -0.951057 2.000000 0.309017
v -0.987689 2.000000 0.156435
v -1.000000 2.000000 0.000000
v -0.987689 2.000000 -0.156434
v -0.951057 2.000000 -0.309017
v -0.891007 2.000000 -0.453990
v -0.809017 2.000000 -0.587785
v -0.707107 2.000000 -0.707107
v -0.587786 2.000000 -0.809017
v -0.453991 2.000000 -0.891007
v -0.309017 2.000000 -0.951057
v -0.156435 2.000000 -0.987689
v -0.000000 2.000000 -1.000000
v 0.156434 2.000000 -0.987689
v 0.309017 2.000000 -0.951057
v 0.453991 2.000000 -0.891007
v 0.587785 2.000000 -0.809017
v 0.707107 2.000000 -0.707107
v 0.809017 2.000000 -0.587785
v 0.891007 2.000000 -0.453991
v 0.951057 2.000000 -0.309017
v 0.987688 2.000000 -0.156434
v 1.000000 2.000000 -0.000000
v 0.740767 1.500000 0.117326
v 0.713293 1.500000 0.231763
v 0.668255 1.500000 0.340493
v 0.606763 1.500000 0.440839
v 0.530331 1.500000 0.530330
v 0.440839 1.500000 0.606763
v 0.340493 1.500000 0.668255
v 0.231763 1.500000 0.713293
v 0.117326 1.500000 0.740767
v 0.000000 1.500000 0.750000
v -0.117326 1.500000 0.740767
v -0.231763 1.500000 0.713293
v -0.340493 1.500000 0.668255
v -0.440839 1.500000 0.606763
v -0.530330 1.500000 0.530330
v -0.606763 1.500000 0.440839
v -0.668255 1.500000 0.340493
v -0.713293 1.500000 0.231763
v -0.740767 1.500000 0.117326
v -0.750000 1.500000 0.000000
v -0.740767 1.500000 -0.117326
v -0.713293 1.500000 -0.231763
v -0.668255 1.500000 -0.340493
v -0.606763 1.500000 -0.440839
v -0.530330 1.500000 -0.530330
v -0.440839 1.500000 -0.606763
v -0.340493 1.500000 -0.668255
v -0.231763 1.500000 -0.713293
v -0.117326 1.500000 -0.740766
v -0.000000 1.500000 -0.750000
v 0.117326 1.500000 -0.740766
v 0.231763 1.500000 -0.713293
v 0.340493 1.500000 -0.668255
v 0.440839 1.500000 -0.606763
v 0.530330 1.500000 -0.530330
v 0.606763 1.500000 -0.440839
v 0.668255 1.500000 -0.340493
v 0.713292 1.500000 -0.231763
v 0.740766 1.500000 -0.117326
v 0.750000 1.500000 -0.000000
v 0.493845 1.000000 0.078217
v 0.475529 1.000000 0.154508
v 0.445504 1.000000 0.226995
v 0.404509 1.000000 0.293893
v 0.353554 1.000000 0.353554
v 0.293893 1.000000 0.404509
v 0.226996 1.000000 0.445503
v 0.154509 1.000000 0.475529
v 0.078217 1.000000 0.493844
v 0.000000 1.000000 0.500000
v -0.078217 1.000000 0.493844
v -0.154508 1.000000 0.475529
v -0.226995 1.000000 0.445504
v -0.293893 1.000000 0.404509
v -0.353553 1.000000 0.353554
v -0.404509 1.000000 0.293893
v -0.445503 1.000000 0.226995
v -0.475528 1.000000 0.154509
v -0.493844 1.000000 0.078217
v -0.500000 1.000000 0.000000
v -0.493844 1.000000 -0.078217
v -0.475528 1.000000 -0.154508
v -0.445503 1.000000 -0.226995
v -0.404509 1.000000 -0.293893
v -0.353554 1.000000 -0.353553
v -0.293893 1.000000 -0.404509
v -0.226995 1.000000 -0.445503
v -0.154509 1.000000 -0.475528
v -0.078217 1.000000 -0.493844
v -0.000000 1.000000 -0.500000
v 0.078217 1.000000 -0.493844
v 0.154508 1.000000 -0.475528
v 0.226995 1.000000 -0.445503
v 0.293893 1.000000 -0.404509
v 0.353553 1.000000 -0.353553
v 0.404509 1.000000 -0.293893
v 0.445503 1.000000 -0.226995
v 0.475528 1.000000 -0.154509
v 0.493844 1.000000 -0.078217
v 0.500000 1.000000 0.000000
v 0.246922 0.500000 0.039109
v 0.237764 0.500000 0.077254
v 0.222752 0.500000 0.113498
v 0.202254 0.500000 0.146946
v 0.176777 0.500000 0.176777
v 0.146946 0.500000 0.202254
v 0.113498 0.500000 0.222752
v 0.077254 0.500000 0.237764
v 0.039109 0.500000 0.246922
v 0.000000 0.500000 0.250000
v -0.039109 0.500000 0.246922
v -0.077254 0.500000 0.237764
v -0.113498 0.500000 0.222752
v -0.146946 0.500000 0.202254
v -0.176777 0.500000 0.176777
v -0.202254 0.500000 0.146946
v -0.222752 0.500000 0.113498
v -0.237764 0.500000 0.077254
v -0.246922 0.500000 0.039109
v -0.250000 0.500000 0.000000
v -0.246922 0.500000 -0.039109
v -0.237764 0.500000 -0.077254
v -0.222752 0.500000 -0.113498
v -0.202254 0.500000 -0.146946
v -0.176777 0.500000 -0.176777
v -0.146946 0.500000 -0.202254
v -0.113498 0.500000 -0.222752
v -0.077254 0.500000 -0.237764
v -0.039109 0.500000 -0.246922
v -0.000000 0.500000 -0.250000
v 0.039109 0.500000 -0.246922
v 0.077254 0.500000 -0.237764
v 0.113498 0.500000 -0.222752
v 0.146946 0.500000 -0.202254
v 0.176777 0.500000 -0.176777
v 0.202254 0.500000 -0.146946
v 0.222752 0.500000 -0.113498
v 0.237764 0.500000 -0.077254
v 0.246922 0.500000 -0.039109
v 0.250000 0.500000 0.000000
v 0.000000 0.000000 0.000000
vt 0.746922 0.210891
vt 0.737764 0.172746
vt 0.722752 0.136502
vt 0.702254 0.103054
vt 0.676777 0.073223
vt 0.646946 0.047746
vt 0.613498 0.027248
vt 0.577254 0.012236
vt 0.539109 0.003078
vt 0.500000 -0.000000
vt 0.460891 0.003078
vt 0.422746 0.012236
vt 0.386502 0.027248
vt 0.353054 0.047746
vt 0.323223 0.073223
vt 0.297746 0.103054
vt 0.277248 0.136502
vt 0.262236 0.172746
vt 0.253078 0.210891
vt 0.250000 0.250000
vt 0.253078 0.289109
vt 0.262236 0.327254
vt 0.277248 0.363498
vt 0.297746 0.396946
vt 0.323223 0.426777
vt 0.353054 0.452254
vt 0.386502 0.472752
vt 0.422746 0.487764
vt 0.460891 0.496922
vt 0.500000 0.500000
vt 0.539109 0.496922
vt 0.577254 0.487764
vt 0.613498 0.472752
vt 0.646946 0.452254
vt 0.676777 0.426777
vt 0.702254 0.396946
vt 0.722752 0.363498
vt 0.737764 0.327254
vt 0.746922 0.289109
vt 0.750000 0.250000
vt 0.250000 0.500000
vt 0.262500 0.500000
vt 0.275000 0.500000
vt 0.287500 0.500000
vt 0.300000 0.500000
vt 0.312500 0.500000
vt 0.325000 0.500000
vt 0.337500 0.500000
vt 0.350000 0.500000
vt 0.362500 0.500000
vt 0.375000 0.500000
vt 0.387500 0.500000
vt 0.400000 0.500000
vt 0.412500 0.500000
vt 0.425000 0.500000
vt 0.437500 0.500000
vt 0.450000 0.500000
vt 0.462500 0.500000
vt 0.475000 0.500000
vt 0.487500 0.500000
vt 0.500000 0.500000
vt 0.512500 0.500000
vt 0.525000 0.500000
vt 0.537500 0.500000
vt 0.550000 0.500000
vt 0.562500 0.500000
vt 0.575000 0.500000
vt 0.587500 0.500000
vt 0.600000 0.500000
vt 0.612500 0.500000
vt 0.625000 0.500000
vt 0.637500 0.500000
vt 0.650000 0.500000
vt 0.662500 0.500000
vt 0.675000 0.500000
vt 0.687500 0.500000
vt 0.700000 0.500000
vt 0.712500 0.500000
vt 0.725000 0.500000
vt 0.737500 0.500000
vt 0.750000 0.500000
vt 0.312500 0.625000
vt 0.321875 0.625000
vt 0.331250 0.625000
vt 0.340625 0.625000
vt 0.350000 0.625000
vt 0.359375 0.625000
vt 0.368750 0.625000
vt 0.378125 0.625000
vt 0.387500 0.625000
vt 0.396875 0.625000
vt 0.406250 0.625000
vt 0.415625 0.625000
vt 0.425000 0.625000
vt 0.434375 0.625000
vt 0.443750 0.625000
vt 0.453125 0.625000
vt 0.462500 0.625000
vt 0.471875 0.625000
vt 0.481250 0.625000
vt 0.490625 0.625000
vt 0.500000 0.625000
vt 0.509375 0.625000
vt 0.518750 0.625000
vt 0.528125 0.625000
vt 0.537500 0.625000
vt 0.546875 0.625000
vt 0.556250 0.625000
vt 0.565625 0.625000
vt 0.575000 0.625000
vt 0.584375 0.625000
vt 0.593750 0.625000
vt 0.603125 0.625000
vt 0.612500 0.625000
vt 0.621875 0.625000
vt 0.631250 0.625000
vt 0.640625 0.625000
vt 0.650000 0.625000
vt 0.659375 0.625000
vt 0.668750 0.625000
vt 0.678125 0.625000
vt 0.687500 0.625000
vt 0.375000 0.750000
vt 0.381250 0.750000
vt 0.387500 0.750000
vt 0.393750 0.750000
vt 0.400000 0.750000
vt 0.406250 0.750000
vt 0.412500 0.750000
vt 0.418750 0.750000
vt 0.425000 0.750000
vt 0.431250 0.750000
vt 0.437500 0.750000
vt 0.443750 0.750000
vt 0.450000 0.750000
vt 0.456250 0.750000
vt 0.462500 0.750000
vt 0.468750 0.750000
vt 0.475000 0.750000
vt 0.481250 0.750000
vt 0.487500 0.750000
vt 0.493750 0.750000
vt 0.500000 0.750000
vt 0.506250 0.750000
vt 0.512500 0.750000
vt 0.518750 0.750000
vt 0.525000 0.750000
vt 0.531250 0.750000
vt 0.537500 0.750000
vt 0.543750 0.750000
vt 0.550000 0.750000
vt 0.556250 0.750000
vt 0.562500 0.750000
vt 0.568750 0.750000
vt 0.575000 0.750000
vt 0.581250 0.750000
vt 0.587500 0.750000
vt 0.593750 0.750000
vt 0.600000 0.750000
vt 0.606250 0.750000
vt 0.612500 0.750000
vt 0.618750 0.750000
vt 0.625000 0.750000
vt 0.437500 0.875000
vt 0.440625 0.875000
vt 0.443750 0.875000
vt 0.446875 0.875000
vt 0.450000 0.875000
vt 0.453125 0.875000
vt 0.456250 0.875000
vt 0.459375 0.875000
vt 0.462500 0.875000
vt 0.465625 0.875000
vt 0.468750 0.875000
vt 0.471875 0.875000
vt 0.475000 0.875000
vt 0.478125 0.875000
vt 0.481250 0.875000
vt 0.484375 0.875000
vt 0.487500 0.875000
vt 0.490625 0.875000
vt 0.493750 0.875000
vt 0.496875 0.875000
vt 0.500000 0.875000
vt 0.503125 0.875000
vt 0.506250 0.875000
vt 0.509375 0.875000
vt 0.512500 0.875000
vt 0.515625 0.875000
vt 0.518750 0.875000
vt 0.521875 0.875000
vt 0.525000 0.875000
vt 0.528125 0.875000
vt 0.531250 0.875000
vt 0.534375 0.875000
vt 0.537500 0.875000
vt 0.540625 0.875000
vt 0.543750 0.875000
vt 0.546875 0.875000
vt 0.550000 0.875000
vt 0.553125 0.875000
vt 0.556250 0.875000
vt 0.559375 0.875000
vt 0.562500 0.875000
vt 0.500000 1.000000
vn 0.883416 -0.447214 0.139917
vn 0.850651 -0.447214 0.276393
vn 0.850651 -0.447214 0.276393
vn 0.883416 -0.447214 0.139917
vn 0.796941 -0.447214 0.406061
vn 0.796940 -0.447214 0.406061
vn 0.723607 -0.447214 0.525731
vn 0.723607 -0.447214 0.525731
vn 0.632455 -0.447214 0.632455
vn 0.632456 -0.447214 0.632455
vn 0.525731 -0.447214 0.723607
vn 0.525731 -0.447214 0.723607
vn 0.406062 -0.447214 0.796940
vn 0.406062 -0.447214 0.796940
vn 0.276393 -0.447214 0.850651
vn 0.276393 -0.447214 0.850651
vn 0.139919 -0.447214 0.883415
vn 0.139919 -0.447214 0.883415
vn 0.000000 -0.447214 0.894427
vn 0.000000 -0.447214 0.894427
vn -0.139919 -0.447214 0.883415
vn -0.139919 -0.447214 0.883415
vn -0.276393 -0.447214 0.850651
vn -0.276393 -0.447214 0.850651
vn -0.406061 -0.447214 0.796941
vn -0.406061 -0.447214 0.796940
vn -0.525731 -0.447214 0.723607
vn -0.525731 -0.447214 0.723607
vn -0.632455 -0.447214 0.632456
vn -0.632455 -0.447214 0.632456
vn -0.723607 -0.447214 0.525731
vn -0.723607 -0.447214 0.525731
vn -0.796940 -0.447214 0.406062
vn -0.796940 -0.447214 0.406062
vn -0.850651 -0.447214 0.276393
vn -0.850651 -0.447214 0.276393
vn -0.883415 -0.447214 0.139919
vn -0.883415 -0.447214 0.139919
vn -0.894427 -0.447214 0.000000
vn -0.894427 -0.447214 0.000000
vn -0.883415 -0.447214 -0.139919
vn -0.883415 -0.447214 -0.139919
vn -0.850651 -0.447214 -0.276393
vn -0.850651 -0.447214 -0.276393
vn -0.796940 -0.447214 -0.406061
vn -0.796941 -0.447214 -0.406061
vn -0.723607 -0.447214 -0.525731
vn -0.723607 -0.447214 -0.525731
vn -0.632456 -0.447214 -0.632456
vn -0.632455 -0.447214 -0.632456
vn -0.525731 -0.447214 -0.723607
vn -0.525731 -0.447214 -0.723607
vn -0.406062 -0.447214 -0.796940
vn -0.406062 -0.447214 -0.796940
vn -0.276393 -0.447214 -0.850651
vn -0.276393 -0.447214 -0.850651
vn -0.139919 -0.447214 -0.883415
vn -0.139919 -0.447214 -0.883415
vn -0.000000 -0.447214 -0.894427
vn -0.000000 -0.447214 -0.894427
vn 0.139919 -0.447214 -0.883415
vn 0.139919 -0.447214 -0.883415
vn 0.276393 -0.447214 -0.850651
vn 0.276393 -0.447214 -0.850651
vn 0.406061 -0.447214 -0.796941
vn 0.406061 -0.447214 -0.796941
vn 0.525731 -0.447214 -0.723607
vn 0.525731 -0.447214 -0.723607
vn 0.632456 -0.447214 -0.632455
vn 0.632456 -0.447214 -0.632455
vn 0.723607 -0.447214 -0.525731
vn 0.723607 -0.447214 -0.525731
vn 0.796941 -0.447214 -0.406061
vn 0.796941 -0.447214 -0.406061
vn 0.850651 -0.447214 -0.276393
vn 0.850651 -0.447214 -0.276393
vn 0.883415 -0.447214 -0.139919
vn 0.883415 -0.447214 -0.139919
vn 0.894427 -0.447214 -0.000002
vn 0.894427 -0.447214 -0.000002
vn 0.850651 -0.447214 0.276393
vn 0.883416 -0.447214 0.139917
vn 0.796940 -0.447214 0.406061
vn 0.723607 -0.447214 0.525731
vn 0.632456 -0.447214 0.632455
vn 0.525731 -0.447214 0.723607
vn 0.406062 -0.447214 0.796940
vn 0.276393 -0.447214 0.850651
vn 0.139919 -0.447214 0.883415
vn 0.000000 -0.447214 0.894427
vn -0.139919 -0.447214 0.883415
vn -0.276393 -0.447214 0.850651
vn -0.406061 -0.447214 0.796940
vn -0.525731 -0.447214 0.723607
vn -0.632455 -0.447214 0.632456
vn -0.723607 -0.447214 0.525731
vn -0.796940 -0.447214 0.406062
vn -0.850651 -0.447214 0.276393
vn -0.883415 -0.447214 0.139919
vn -0.894427 -0.447214 -0.000000
vn -0.883415 -0.447214 -0.139919
vn -0.850651 -0.447214 -0.276393
vn -0.796941 -0.447214 -0.406061
vn -0.723607 -0.447214 -0.525731
vn -0.632455 -0.447214 -0.632456
vn -0.525731 -0.447214 -0.723607
vn -0.406062 -0.447214 -0.796940
vn -0.276393 -0.447214 -0.850651
vn -0.139919 -0.447214 -0.883415
vn 0.000000 -0.447214 -0.894427
vn 0.139919 -0.447214 -0.883415
vn 0.276393 -0.447214 -0.850651
vn 0.406061 -0.447214 -0.796941
vn 0.525731 -0.447214 -0.723607
vn 0.632456 -0.447214 -0.632455
vn 0.723607 -0.447214 -0.525731
vn 0.796941 -0.447214 -0.406061
vn 0.850651 -0.447214 -0.276393
vn 0.883415 -0.447214 -0.139919
vn 0.894427 -0.447214 -0.000002
vn 0.850651 -0.447214 0.276393
vn 0.883416 -0.447214 0.139917
vn 0.796941 -0.447214 0.406061
vn 0.723607 -0.447214 0.525731
vn 0.632456 -0.447214 0.632455
vn 0.525731 -0.447214 0.723607
vn 0.406062 -0.447214 0.796940
vn 0.276393 -0.447214 0.850651
vn 0.139919 -0.447214 0.883415
vn -0.000000 -0.447214 0.894427
vn -0.139919 -0.447214 0.883415
vn -0.276393 -0.447214 0.850651
vn -0.406061 -0.447214 0.796941
vn -0.525731 -0.447214 0.723607
vn -0.632455 -0.447214 0.632456
vn -0.723607 -0.447214 0.525731
vn -0.796940 -0.447214 0.406061
vn -0.850651 -0.447214 0.276393
vn -0.883415 -0.447214 0.139919
vn -0.894427 -0.447214 0.000000
vn -0.883415 -0.447214 -0.139919
vn -0.850651 -0.447214 -0.276393
vn -0.796941 -0.447214 -0.406061
vn -0.723607 -0.447214 -0.525731
vn -0.632456 -0.447214 -0.632456
vn -0.525731 -0.447214 -0.723607
vn -0.406062 -0.447214 -0.796940
vn -0.276393 -0.447214 -0.850651
vn -0.139919 -0.447214 -0.883415
vn -0.000000 -0.447214 -0.894427
vn 0.139919 -0.447214 -0.883415
vn 0.276393 -0.447214 -0.850651
vn 0.406061 -0.447214 -0.796940
vn 0.525731 -0.447214 -0.723607
vn 0.632456 -0.447214 -0.632455
vn 0.723607 -0.447214 -0.525731
vn 0.796940 -0.447214 -0.406061
vn 0.850651 -0.447214 -0.276393
vn 0.883415 -0.447214 -0.139919
vn 0.894427 -0.447214 -0.000002
vn 0.000000 1.000000 -0.000000
vn 0.000000 1.000000 -0.000000
vn 0.000000 1.000000 -0.000000
vn 0.000000 1.000000 -0.000000
vn 0.000000 1.000000 -0.000000
vn 0.000000 1.000000 -0.000000
vn 0.000000 1.000000 -0.000000
vn 0.000000 1.000000 -0.000000
vn 0.000000 1.000000 -0.000000
vn 0.000000 1.000000 -0.000000
vn 0.000000 1.000000 -0.000000
vn 0.000000 1.000000 -0.000000
vn 0.000000 1.000000 -0.000000
vn 0.000000 1.000000 -0.000000
vn 0.000000 1.000000 -0.000000
vn 0.000000 1.000000 -0.000000
vn 0.000000 1.000000 -0.000000
vn 0.000000 1.000000 -0.000000
vn 0.000000 1.000000 -0.000000
vn 0.000000 1.000000 -0.000000
vn 0.000000 1.000000 -0.000000
vn 0.000000 1.000000 -0.000000
vn 0.000000 1.000000 -0.000000
vn 0.000000 1.000000 -0.000000
vn 0.000000 1.000000 -0.000000
vn 0.000000 1.000000 -0.000000
vn 0.000000 1.000000 -0.000000
vn 0.000000 1.000000 -0.000000
vn 0.000000 1.000000 -0.000000
vn 0.000000 1.000000 -0.000000
vn 0.000000 1.000000 -0.000000
vn 0.000000 1.000000 -0.000000
vn 0.000000 1.000000 -0.000000
vn 0.000000 1.000000 -0.000000
vn 0.000000 1.000000 -0.000000
vn 0.000000 1.000000 -0.000000
vn 0.000000 1.000000 -0.000000
vn 0.000000 1.000000 -0.000000
vn 0.000000 1.000000 -0.000000
vn 0.000000 1.000000 -0.000000
vn -0.000002 -1.000000 0.000000
s 1
usemtl initialShadingGroup
f 1/41/1 2/42/2 42/83/3 41/82/4
f 2/42/2 3/43/5 43/84/6 42/83/3
f 3/43/5 4/44/7 44/85/8 43/84/6
f 4/44/7 5/45/9 45/86/10 44/85/8
f 5/45/9 6/46/11 46/87/12 45/86/10
f 6/46/11 7/47/13 47/88/14 46/87/12
f 7/47/13 8/48/15 48/89/16 47/88/14
f 8/48/15 9/49/17 49/90/18 48/89/16
f 9/49/17 10/50/19 50/91/20 49/90/18
f 10/50/19 11/51/21 51/92/22 50/91/20
f 11/51/21 12/52/23 52/93/24 51/92/22
f 12/52/23 13/53/25 53/94/26 52/93/24
f 13/53/25 14/54/27 54/95/28 53/94/26
f 14/54/27 15/55/29 55/96/30 54/95/28
f 15/55/29 16/56/31 56/97/32 55/96/30
f 16/56/31 17/57/33 57/98/34 56/97/32
f 17/57/33 18/58/35 58/99/36 57/98/34
f 18/58/35 19/59/37 59/100/38 58/99/36
f 19/59/37 20/60/39 60/101/40 59/100/38
f 20/60/39 21/61/41 61/102/42 60/101/40
f 21/61/41 22/62/43 62/103/44 61/102/42
f 22/62/43 23/63/45 63/104/46 62/103/44
f 23/63/45 24/64/47 64/105/48 63/104/46
f 24/64/47 25/65/49 65/106/50 64/105/48
f 25/65/49 26/66/51 66/107/52 65/106/50
f 26/66/51 27/67/53 67/108/54 66/107/52
f 27/67/53 28/68/55 68/109/56 67/108/54
f 28/68/55 29/69/57 69/110/58 68/109/56
f 29/69/57 30/70/59 70/111/60 69/110/58
f 30/70/59 31/71/61 71/112/62 70/111/60
f 31/71/61 32/72/63 72/113/64 71/112/62
f 32/72/63 33/73/65 73/114/66 72/113/64
f 33/73/65 34/74/67 74/115/68 73/114/66
f 34/74/67 35/75/69 75/116/70 74/115/68
f 35/75/69 36/76/71 76/117/72 75/116/70
f 36/76/71 37/77/73 77/118/74 76/117/72
f 37/77/73 38/78/75 78/119/76 77/118/74
f 38/78/75 39/79/77 79/120/78 78/119/76
f 39/79/77 40/80/79 80/121/80 79/120/78
f 40/80/79 1/81/1 41/122/4 80/121/80
f 41/82/4 42/83/3 82/124/81 81/123/82
f 42/83/3 43/84/6 83/125/83 82/124/81
f 43/84/6 44/85/8 84/126/84 83/125/83
f 44/85/8 45/86/10 85/127/85 84/126/84
f 45/86/10 46/87/12 86/128/86 85/127/85
f 46/87/12 47/88/14 87/129/87 86/128/86
f 47/88/14 48/89/16 88/130/88 87/129/87
f 48/89/16 49/90/18 89/131/89 88/130/88
f 49/90/18 50/91/20 90/132/90 89/131/89
f 50/91/20 51/92/22 91/133/91 90/132/90
f 51/92/22 52/93/24 92/134/92 91/133/91
f 52/93/24 53/94/26 93/135/93 92/134/92
f 53/94/26 54/95/28 94/136/94 93/135/93
f 54/95/28 55/96/30 95/137/95 94/136/94
f 55/96/30 56/97/32 96/138/96 95/137/95
f 56/97/32 57/98/34 97/139/97 96/138/96
f 57/98/34 58/99/36 98/140/98 97/139/97
f 58/99/36 59/100/38 99/141/99 98/140/98
f 59/100/38 60/101/40 100/142/100 99/141/99
f 60/101/40 61/102/42 101/143/101 100/142/100
f 61/102/42 62/103/44 102/144/102 101/143/101
f 62/103/44 63/104/46 103/145/103 102/144/102
f 63/104/46 64/105/48 104/146/104 103/145/103
f 64/105/48 65/106/50 105/147/105 104/146/104
f 65/106/50 66/107/52 106/148/106 105/147/105
f 66/107/52 67/108/54 107/149/107 106/148/106
f 67/108/54 68/109/56 108/150/108 107/149/107
f 68/109/56 69/110/58 109/151/109 108/150/108
f 69/110/58 70/111/60 110/152/110 109/151/109
f 70/111/60 71/112/62 111/153/111 110/152/110
f 71/112/62 72/113/64 112/154/112 111/153/111
f 72/113/64 73/114/66 113/155/113 112/154/112
f 73/114/66 74/115/68 114/156/114 113/155/113
f 74/115/68 75/116/70 115/157/115 114/156/114
f 75/116/70 76/117/72 116/158/116 115/157/115
f 76/117/72 77/118/74 117/159/117 116/158/116
f 77/118/74 78/119/76 118/160/118 117/159/117
f 78/119/76 79/120/78 119/161/119 118/160/118
f 79/120/78 80/121/80 120/162/120 119/161/119
f 80/121/80 41/122/4 81/163/82 120/162/120
f 81/123/82 82/124/81 122/165/121 121/164/122
f 82/124/81 83/125/83 123/166/123 122/165/121
f 83/125/83 84/126/84 124/167/124 123/166/123
f 84/126/84 85/127/85 125/168/125 124/167/124
f 85/127/85 86/128/86 126/169/126 125/168/125
f 86/128/86 87/129/87 127/170/127 126/169/126
f 87/129/87 88/130/88 128/171/128 127/170/127
f 88/130/88 89/131/89 129/172/129 128/171/128
f 89/131/89 90/132/90 130/173/130 129/172/129
f 90/132/90 91/133/91 131/174/131 130/173/130
f 91/133/91 92/134/92 132/175/132 131/174/131
f 92/134/92 93/135/93 133/176/133 132/175/132
f 93/135/93 94/136/94 134/177/134 133/176/133
f 94/136/94 95/137/95 135/178/135 134/177/134
f 95/137/95 96/138/96 136/179/136 135/178/135
f 96/138/96 97/139/97 137/180/137 136/179/136
f 97/139/97 98/140/98 138/181/138 137/180/137
f 98/140/98 99/141/99 139/182/139 138/181/138
f 99/141/99 100/142/100 140/183/140 139/182/139
f 100/142/100 101/143/101 141/184/141 140/183/140
f 101/143/101 102/144/102 142/185/142 141/184/141
f 102/144/102 103/145/103 143/186/143 142/185/142
f 103/145/103 104/146/104 144/187/144 143/186/143
f 104/146/104 105/147/105 145/188/145 144/187/144
f 105/147/105 106/148/106 146/189/146 145/188/145
f 106/148/106 107/149/107 147/190/147 146/189/146
f 107/149/107 108/150/108 148/191/148 147/190/147
f 108/150/108 109/151/109 149/192/149 148/191/148
f 109/151/109 110/152/110 150/193/150 149/192/149
f 110/152/110 111/153/111 151/194/151 150/193/150
f 111/153/111 112/154/112 152/195/152 151/194/151
f 112/154/112 113/155/113 153/196/153 152/195/152
f 113/155/113 114/156/114 154/197/154 153/196/153
f 114/156/114 115/157/115 155/198/155 154/197/154
f 115/157/115 116/158/116 156/199/156 155/198/155
f 116/158/116 117/159/117 157/200/157 156/199/156
f 117/159/117 118/160/118 158/201/158 157/200/157
f 118/160/118 119/161/119 159/202/159 158/201/158
f 119/161/119 120/162/120 160/203/160 159/202/159
f 120/162/120 81/163/82 121/204/122 160/203/160
s off
f 1/1/161 40/40/162 39/39/163 38/38/164 37/37/165 36/36/166 35/35/167 34/34/168 33/33/169 32/32/170 31/31/171 30/30/172 29/29/173 28/28/174 27/27/175 26/26/176 25/25/177 24/24/178 23/23/179 22/22/180 21/21/181 20/20/182 19/19/183 18/18/184 17/17/185 16/16/186 15/15/187 14/14/188 13/13/189 12/12/190 11/11/191 10/10/192 9/9/193 8/8/194 7/7/195 6/6/196 5/5/197 4/4/198 3/3/199 2/2/200
s 1
f 121/164/122 122/165/121 161/205/201
f 122/165/121 123/166/123 161/205/201
f 123/166/123 124/167/124 161/205/201
f 124/167/124 125/168/125 161/205/201
f 125/168/125 126/169/126 161/205/201
f 126/169/126 127/170/127 161/205/201
f 127/170/127 128/171/128 161/205/201
f 128/171/128 129/172/129 161/205/201
f 129/172/129 130/173/130 161/205/201
f 130/173/130 131/174/131 161/205/201
f 131/174/131 132/175/132 161/205/201
f 132/175/132 133/176/133 161/205/201
f 133/176/133 134/177/134 161/205/201
f 134/177/134 135/178/135 161/205/201
f 135/178/135 136/179/136 161/205/201
f 136/179/136 137/180/137 161/205/201
f 137/180/137 138/181/138 161/205/201
f 138/181/138 139/182/139 161/205/201
f 139/182/139 140/183/140 161/205/201
f 140/183/140 141/184/141 161/205/201
f 141/184/141 142/185/142 161/205/201
f 142/185/142 143/186/143 161/205/201
f 143/186/143 144/187/144 161/205/201
f 144/187/144 145/188/145 161/205/201
f 145/188/145 146/189/146 161/205/201
f 146/189/146 147/190/147 161/205/201
f 147/190/147 148/191/148 161/205/201
f 148/191/148 149/192/149 161/205/201
f 149/192/149 150/193/150 161/205/201
f 150/193/150 151/194/151 161/205/201
f 151/194/151 152/195/152 161/205/201
f 152/195/152 153/196/153 161/205/201
f 153/196/153 154/197/154 161/205/201
f 154/197/154 155/198/155 161/205/201
f 155/198/155 156/199/156 161/205/201
f 156/199/156 157/200/157 161/205/201
f 157/200/157 158/201/158 161/205/201
f 158/201/158 159/202/159 161/205/201
f 159/202/159 160/203/160 161/205/201
f 160/203/160 121/204/122 161/205/201
